/* XPM */
static char *d4e83319150143aff2cf371b25834258oMSMnLpMkRWnOTCt[] = {
/* columns rows colors chars-per-pixel */
"64 64 185 2 ",
"   c #1C1801",
".  c #1D1A0E",
"X  c #161616",
"o  c #1E1E1E",
"O  c #221C01",
"+  c #281F02",
"@  c #221F0E",
"#  c #221F10",
"$  c #211E1D",
"%  c #262101",
"&  c #292101",
"*  c #23200C",
"=  c #29240D",
"-  c #2F2A0F",
";  c #342C00",
":  c #3C3000",
">  c #272513",
",  c #292512",
"<  c #25241A",
"1  c #2D2A1D",
"2  c #393415",
"3  c #1E1E22",
"4  c #221F20",
"5  c #1E2020",
"6  c #242424",
"7  c #2B2A26",
"8  c #282829",
"9  c #2B2B2B",
"0  c #312E23",
"q  c #333127",
"w  c #323129",
"e  c #3D3B2B",
"r  c #2B2B31",
"t  c #333233",
"y  c #3B3932",
"u  c #3F3F3F",
"i  c #40380A",
"p  c #41392B",
"a  c #47421F",
"s  c #4A421B",
"d  c #464220",
"f  c #474228",
"g  c #464646",
"h  c #494647",
"j  c #4A4847",
"k  c #494849",
"l  c #555354",
"z  c #7B7B7B",
"x  c #856C00",
"c  c #877100",
"v  c #947D02",
"b  c #9A7E00",
"n  c #40A158",
"m  c #9C8100",
"M  c #A38700",
"N  c #AD8F00",
"B  c #AE9000",
"V  c #AF9900",
"C  c #AD950D",
"Z  c #AE9B0C",
"A  c #B49500",
"S  c #BD9700",
"D  c #B49900",
"F  c #BA9A00",
"G  c #B2960A",
"H  c #B19A0B",
"J  c #AD9514",
"K  c #AE9C14",
"L  c #B49B11",
"P  c #AC9821",
"I  c #C29C00",
"U  c #C6A500",
"Y  c #C9A400",
"T  c #CBAB00",
"R  c #D2AA00",
"E  c #CFB600",
"W  c #CDB30C",
"Q  c #D5B300",
"!  c #DAB200",
"~  c #D1B40C",
"^  c #DEB509",
"/  c #CFB317",
"(  c #CDB419",
")  c #CCB81D",
"_  c #D1B416",
"`  c #D3BE16",
"'  c #D0B41A",
"]  c #D7B91C",
"[  c #D8B91A",
"{  c #E2BB00",
"}  c #C9B322",
"|  c #D1B120",
" . c #D3B831",
".. c #EAC500",
"X. c #EBC604",
"o. c #E6C800",
"O. c #EECE03",
"+. c #F5CC00",
"@. c #F2C805",
"#. c #F9CB00",
"$. c #EDD000",
"%. c #FED602",
"&. c #F6DA02",
"*. c #FCD800",
"=. c #FCD50A",
"-. c #F7D80A",
";. c #E3C516",
":. c #EECC16",
">. c #F7CF12",
",. c #F1CD19",
"<. c #F9CE1C",
"1. c #FCD714",
"2. c #FEDA15",
"3. c #F6D61E",
"4. c #FAD41C",
"5. c #F3D81C",
"6. c #FEDA19",
"7. c #DEC524",
"8. c #E2CA23",
"9. c #ECCB23",
"0. c #EED027",
"q. c #EFD62D",
"w. c #EFD82A",
"e. c #F5D523",
"r. c #FBD523",
"t. c #F3D52B",
"y. c #F8D42A",
"u. c #F7D82D",
"i. c #E9CE32",
"p. c #EFD634",
"a. c #EDD53B",
"s. c #EED93E",
"d. c #F2D432",
"f. c #F7D933",
"g. c #F3D93E",
"h. c #969073",
"j. c #D4B645",
"k. c #E6D646",
"l. c #EAD545",
"z. c #EAD549",
"x. c #F2D642",
"c. c #E4D551",
"v. c #959184",
"b. c #909090",
"n. c #AFA888",
"m. c #B1AA84",
"M. c #B1A887",
"N. c #BAB491",
"B. c #BBB49A",
"V. c #A5A4A4",
"C. c #AEAEAE",
"Z. c #B0ACAE",
"A. c #B4B2B2",
"S. c #CAC19C",
"D. c #D2C99D",
"F. c #C4C2A9",
"G. c #D4CBA6",
"H. c #D3CBAB",
"J. c #D2CCB1",
"K. c #D5D3BB",
"L. c #CAC6C2",
"P. c #D7D2C2",
"I. c #D8D1C3",
"U. c #D6D1C9",
"Y. c #D2CFD3",
"T. c #D3D1D2",
"R. c #DCDBD5",
"E. c #EAE7D7",
"W. c #E9E7E7",
"Q. c #EBE8E7",
"!. c #EBE7E9",
"~. c #EAE8E9",
"^. c #EEF0EA",
"/. c #F1F0E4",
"(. c #FCF7EB",
"). c #FDF9EA",
"_. c #E7E6F0",
"`. c #F1EEF2",
"'. c #F3F0F1",
"]. c #FEF6F7",
"[. c #FBF9F7",
"{. c #FEFAFA",
"}. c #FEFBFC",
"|. c #FFFBFE",
" X c #FEFCFD",
/* pixels */
"n n n n n n n n n n n n n n n n n n n n $ 8 8 6 6 9 9 9 9 9 9 9 8 9 9 8 $ 8 9 6 6 9 9 n n n n n n n n n n n n n n n n n n n n n ",
"n n n n n n n n n n n n n n n n n n n n 6 9 9 6 6 9 9 9 9 9 9 9 9 9 9 8 $ 9 9 6 6 9 9 n n n n n n n n n n n n n n n n n n n n n ",
"n n n n n n n n n n n n n n n n n n n n o 9 9 6 6 9 9 9 9 9 9 9 9 9 9 8 6 9 9 6 6 9 9 n n n n n n n n n n n n n n n n n n n n n ",
"n n n n n n n n n n n n n n n n n n n n o 9 8 6 9 t t t t w t t t t t t < 8 8 6 6 8 8 n n n n n n n n n n n n n n n n n n n n n ",
"n n n n n n n n n n n n 9 o o 6 6 5 5 o X o 6 X z A.A.A.A.A.A.A.Z.A.A.V.X 3 o X X 3 6 < o 3 < 6 3 3 6 n n n n n n n n n n n n n ",
"n n n n n n n n n n n n g 9 8 8 9 9 9 7 o 9 9 6 C.}.}.|.|.|.}.}.|.}.|.!.3 9 9 6 6 9 8 8 8 9 9 9 8 9 9 n n n n n n n n n n n n n ",
"n n n n n n n n n n n n u 9 9 9 8 9 9 8 o 9 r 6 C.|.|.|.|.}.}.|.}.}.|.!.$ 9 9 6 8 9 9 9 9 9 9 9 9 9 9 n n n n n n n n n n n n n ",
"n n n n n n n n n n n n t 6 6 8 8 6 6 6 X 6 < 5 v.K.K.U.K.P.P.K.U.P.P.F.. > > > * > > > 6 6 6 6 6 6 6 n n n n n n n n n n n n n ",
"n n n n n n n n l h h k 9 6 6 6 C.C.C.V.z C.C.v.K [ [  .` ] [ ` j.[ ] W x A A b m A A J q 6 6 6 6 6 6 n n n n n n n n n n n n n ",
"n n n n n n n n k 9 9 8 9 9 9 9  X X X'.A. X XP.] %.%.4.%.*.%.%.t.*.*.+.F %.%.! Q *.%.3.p 9 9 9 9 9 9 n n n n n n n n n n n n n ",
"n n n n n n n n k 9 9 9 9 9 9 9 |. X X'.A. X XK.] %.%.3.%.*.%.%.w.*.*.+.F %.*.Q ! *.*.e.e 9 9 9 9 9 9 n n n n n n n n n n n n n ",
"n n n n n n n n k 8 9 9 9 9 9 w  X X X'.A.|. XP. .r.3.a.r.e.e.1.l.r.3.,.D e.4.~ ~ e.e.d.y 9 8 8 9 9 8 n n n n n n n n n n n n n ",
"n n n n n n n n j 9 9 9 R.!.~.~.x.6.6.>.D 6.6._ D.).).(.).).).).(.).).E.1 e p 2 F %.%.e.@.X.X...9 9 9 9 9 g u t n n n n n n n n ",
"n n n n n n n n k 9 9 9 !.|.}.|.t.%.%.+.F %.%.Q G. X X X}. X}. X|.|. XQ.$ 9 9 = A %.%.3.%.=.%.%.9 9 9 9 o 9 8 6 n n n n n n n n ",
"n n n n n n n n k 9 9 9 ~. X X}.t.%.%.%.F *.%.Q H. X X X|. X X X}. X XQ.3 9 9 , A %.*.3.%.%.%.%.9 9 9 9 o 8 9 6 n n n n n n n n ",
"n n n n n n n n h 9 9 8 ~. X X].p.*.%.#.F *.%.Q G. X X X]. X|. X[.[.[._.6 8 9 , D -.*.4.%.%.*.=.w 9 9 7 6 9 9 6 n n n n n n n n ",
"n n n n 6 9 9 6 6 9 9 9 ~. X X}.l.t.u.9.Z t.d.} J. X X Xs.d.q.p.z.t.d.8.+ 9 9 < J d.t.l.t.t.t.<.r 9 9 8 o 8 9 8 n n n n n n n n ",
"n n n n o 9 9 6 6 9 9 9 ~. X X}.t.%.%.+.F %.%.Q G. X X X2.%.*.*.d.*.%...% 9 9 > A %.%.3.%.%.%.%.9 9 9 8 o 9 9 6 n n n n n n n n ",
"n n n n < 9 9 6 6 9 9 9 ~. X X Xt.%.%.#.F %.%.Q H. X X X2.*.*.%.t.%.*...% 9 9 , A %.%.3.%.%.%.%.9 9 9 9 o 9 9 6 n n n n n n n n ",
"n n n n 3 8 8 6 9 t t t R./././.8.$.+...A +.@.T S.'.'.'.<.$.+.#.9.+.@.{ % 8 8 = B @.+.:.#.+.$.+.w q q 0 o 9 9 6 n n n n n n n n ",
"n n n n X 5 3 X z A.A.A.L D D D G F F A c F F m h.A.A.A.I F F F K F F B   5 3 . x D F D S F F I K V D M   5 o X n n n n n n n n ",
"n n n n o 9 9 6 C. X X X6.%.%.*.t.*.*.#.F *.%.Q G. X X X6.*.*.%.w.*.%.X.% 9 9 , A *.*.5.%.%.*.%.q.%.%.X.% 9 9 6 6 9 9 9 n n n n ",
"n n n n < 9 9 8 C. X X|.6.%.*.*.e.*.*.+.D %.%.Q H. X X X2.%.%.%.q.%.%.o.% 9 9 > D %.=.5.%.%.*.%.q.%.%.X.% 9 9 6 6 9 9 9 n n n n ",
"n n n n o 6 6 5 b.T.T.T.Q ! ! ! ' ! ! R m Q ! A M.T.T.Y.! Q ! ! ) Q Q U O 6 6 # b Q ! ~ ! ! Q ! ( ! ! U % 6 6 3 o 6 6 6 n n n n ",
"n n n n o 6 6 3 b.T.T.T.Q Q Q ! / Q ! R m Q ! A n.Y.Y.T.! Q Q ! ( ! Q U O 6 6 * b Q Q ~ ! Q Q ! ( Q Q U O 6 6 5 o 6 6 8 n n n n ",
"n n n n < 9 8 6 C. X X|.6.%.*.%.t.%.%.+.F *.%.Q G.|. X X6.%.%.%.t.%.%.X.% 9 9 , A %.*.4.%.%.%.%.t.%.%.X.& 9 r 6 6 9 9 9 n n n n ",
"n n n n o 8 9 6 C. X X X6.%.%.%.t.%.%.#.F *.%.Q G. X X X6.%.%.%.t.%.%.X.% 9 9 , A *.*.5.%.%.%.%.t.%.%...+ 9 r 5 6 9 9 9 n n n n ",
"n n n n 6 9 9 6 C.}.}.}.f.3.5.4.l.3.e.:.D e.e.( J. X}.}.r.3.3.4.l.3.e.;.* 9 9 > C e.r.a.r.e.3.4.l.3.e.;.% 9 9 6 6 8 9 9 n n n n ",
"n n n n 3 8 9 8 C. X X}.4.%.%.%.y.%.%.#.F %.%.Q G. X X Xr.-.%.%.t.%.=...& 9 9 - A =.%.r.%.%.%.%.u.%.%.{ % 9 9 6 8 9 9 9 n n n n ",
"n n n n 5 9 9 6 C. X X X6.*.%.%.t.%.*.+.F %.%.Q G. X X X2.*.%.%.w.*.*...% 9 8 > V *.*.5.%.*.%.%.t.%.%.X.% 9 9 6 6 9 9 9 n n n n ",
"n n n n 5 9 9 6 C. X X X6.%.%.%.t.%.%.+.D %.%.Q G. X X X2.*.%.%.w.%.*...& 9 9 > A %.%.e.=.%.%.%.t.%.%.X.% 9 9 6 6 9 9 9 n n n n ",
"n n n n o 9 9 6 C. X X X6.%.%.%.e.%.%.#.F %.=.Q G. X X X6.*.*.%.t.*.=...& 9 9 , D =.%.4.#.%.%.%.e.%.%...% 9 9 6 6 9 9 9 n n n n ",
"n n n n 6 9 8 6 C.}.}.}.g.t.t.e.c.q.q.9.Z e.t.} J.}.}.}.u.d.d.e.c.t.t.8.@ 8 8 < J t.w.k.t.q.t.e.c.t.t.7.% 9 9 6 6 9 9 9 n n n n ",
"n n n n 5 9 9 6 C.}.|.}.2.%.%.%.u.*.*.#.D %.%.Q G.}.}.|.6.*.%.%.t.*.%.o.+ 8 9 > A %.%.5.%.*.*.%.t.%.%.X.% 9 9 6 6 9 9 9 n n n n ",
"n n n n 5 8 9 6 C.}. X X6.*.*.%.e.*.*.#.D %.%.Q G. X|. X2.*.%.%.w.*.*.o.% 9 9 > V &.*.5.%.*.*.*.t.%.*.X.% 9 9 6 6 8 9 8 n n n n ",
"n n n n 5 8 9 6 V.'.`.'.>.#.#.#.9.+.#.{ A #.#.T S.'.`.`.4.O.+.#.0.+.+.{ & 9 9 , B +.+.,.#.#.@.#.9.#.#.{ + 8 9 6 6 9 9 9 n n n n ",
"n n n n X < 3 o z A.A.A.F F F F H F F A c F S m h.A.A.A.I F S S Z F F B   < 3 . x F F D F F S S Z S S N   o 3 X o 5 5 5 n n n n ",
"n n n n 5 9 8 6 C.}. X}.6.*.*.%.y.*.%.#.F *.%.Q G. X X X6.*.%.%.t.%.%.X.& 8 8 , A %.%.3.%.%.%.%.t.%.%...+ 8 9 6 6 9 9 9 n n n n ",
"n n n n o 8 9 6 C. X X X6.*.%.%.t.%.%.#.F *.*.Q G. X X X6.*.%.%.t.%.%.X.% 8 9 , A %.%.e.%.%.%.%.t.%.%.o.+ 7 9 6 6 8 9 9 n n n n ",
"n n n n 5 6 6 5 b.T.T.T.Q ! Q ! / Q Q R m Q ! V n.T.T.T.! Q ! ! ( ! Q U O 6 6 > b Q ! W ! Q ! ! ( Q Q U O 6 6 3 5 6 6 6 n n n n ",
"n n n n o 6 6 < b.T.T.T.Q Q ! ! _ ! ! R b ! ! A m.T.T.Y.^ Q ! ! ( ! Q Y O 6 6 > b Q ! ~ ! ! ! ! _ ! ! U O 6 6 5 o 6 6 6 n n n n ",
"n n n n o 9 9 6 C. X X X6.%.*.%.t.*.%.+.F *.%.Q G. X X X2.*.%.*.w.*.*.o.% 9 9 > V &.*.3.%.*.*.%.t.*.*...% 8 r 6 6 9 9 9 n n n n ",
"n n n n 3 9 9 6 C. X X}.6.*.%.*.t.%.%.+.D %.%.Q H. X X X2.*.*.%.w.%.%.o.+ 9 9 , A %.%.3.%.%.*.%.u.%.*...% 9 9 6 6 9 9 9 n n n n ",
"n n n n 6 9 9 6 C. X X[.f.5.4.5.l.4.3.:.D 3.4./ J. X X Xr.e.e.4.k.3.e.;.+ 9 9 < C e.5.a.e.3.e.<.l.3.e.;.% 8 9 6 6 9 9 9 n n n n ",
"n n n n o 9 9 6 t u u u E.).).).a.%.%.#.F =.=.Q G. X X Xr.&.%.%.u.%.-.X.+ 8 9 , D 1.=.3.%.%.&.*.y e e e $ 7 7 6 n n n n n n n n ",
"n n n n o 8 9 6 6 9 9 9 ~. X X Xt.%.%.#.D %.%.Q G. X X X6.%.%.%.t.%.%.X.% 9 9 > A *.%.3.%.%.%.%.9 9 7 8 6 9 9 6 n n n n n n n n ",
"n n n n 5 9 9 6 6 9 9 9 ~. X X[.q.*.*.+.D %.%.Q H. X X X2.%.%.*.d.%.%...% 9 9 > V *.%.3.%.%.%.%.8 9 9 7 5 8 9 6 n n n n n n n n ",
"n n n n 5 9 9 8 6 9 9 9 ~. X X|.a.*.%.#.F %.%.Q G. X X|.6.%.%.=.3.%.=...& 9 9 - A %.%.3.%.%.=.=.r 9 9 8 $ 9 9 8 n n n n n n n n ",
"n n n n n n n n n 8 9 9 Q. X X[.z.t.t.9.C t.t.} p 9 9 9 9 9 9 9 9 w 8 7 < 9 9 < J d.u.l.t.t.t.4.w 8 9 8 o 8 8 8 n n n n n n n n ",
"n n n n n n n n n 9 9 9 ~. X X Xt.%.%.#.F %.%.E a 9 9 9 9 9 9 9 9 8 9 8 3 9 9 , A *.%.3.%.%.%.%.9 9 9 8 < 9 9 6 n n n n n n n n ",
"n n n n n n n n n 9 9 8 ~. X X Xt.%.%.+.F %.%.Q d 9 9 9 9 9 9 9 9 9 9 8 3 8 8 , A %.%.3.%.%.%.%.9 9 9 9 5 9 9 6 n n n n n n n n ",
"n n n n n n n n n 8 9 7 T.W.W.Q.i.=.O.X.A +.+.T s q q q q q q q w w w 0 < q w - N +.+.:.@.{ ....7 9 8 8 6 t t 9 n n n n n n n n ",
"n n n n n n n n n 6 o 6 5 < 3 5 B.N.B.m.x F S M M A D K A D A D P D D N x D D b b F F D ; % % = o 5 6 6 n n n n n n n n n n n n ",
"n n n n n n n n n 9 9 9 9 9 9 9  X X X/.A %.=.Q ! %.%.r.%.%.%.=.t.%.%.#.S %.%.Q ! %.%.5.p 9 9 r 9 7 9 t n n n n n n n n n n n n ",
"n n n n n n n n n 8 9 9 9 9 9 9  X X|.^.D %.*.^ Q *.*.3.%.*.%.*.t.*.*.#.F %.%.Q ! %.*.r.e 9 9 9 8 9 9 t n n n n n n n n n n n n ",
"n n n n n n n n n 6 6 6 6 6 6 8 T.T.T.L.v Q Q D A ! ! ~ ! ~ Q ! ) Q ! T b Q Q A A ~ Q | w 6 6 8 6 6 6 9 n n n n n n n n n n n n ",
"n n n n n n n n n n n n t 6 6 6 k k j g 2 d a : M ! R ~ ! Q Q ! ( Q Q U : a s 2 2 s s d 8 6 8 6 6 6 6 9 n n n n n n n n n n n n ",
"n n n n n n n n n n n n u 8 9 9 9 9 9 7 o 8 7 > A %.*.e.%.*.%.%.w.%.%...+ 9 9 6 6 9 9 9 7 9 9 9 9 9 9 t n n n n n n n n n n n n ",
"n n n n n n n n n n n n g 9 9 9 9 9 9 8 o 9 9 > A %.%.4.=.%.%.*.d.%.*...+ 9 9 6 6 9 9 9 9 9 9 9 9 9 9 t n n n n n n n n n n n n ",
"n n n n n n n n n n n n u 9 9 9 8 9 9 8 o 9 r > C 3.3.p.t.3.3.e.a.e.r.;.& 9 9 6 6 9 9 8 9 9 9 9 9 9 9 t n n n n n n n n n n n n ",
"n n n n n n n n n n n n n n n n n n n n 4 9 9 < 0 e e y y f e p e p p y $ 9 9 6 6 9 9 9 n n n n n n n n n n n n n n n n n n n n ",
"n n n n n n n n n n n n n n n n n n n n 3 9 9 6 4 9 9 9 9 9 9 9 9 9 9 8 $ 9 9 6 6 9 9 9 n n n n n n n n n n n n n n n n n n n n ",
"n n n n n n n n n n n n n n n n n n n n $ 9 9 6 6 9 9 9 9 9 9 9 9 9 9 8 3 9 9 9 6 9 9 9 n n n n n n n n n n n n n n n n n n n n ",
"n n n n n n n n n n n n n n n n n n n n 3 9 9 6 6 9 9 9 9 9 9 9 9 9 9 8 3 9 9 6 6 9 9 9 n n n n n n n n n n n n n n n n n n n n "
};
