/* XPM */
static char *_e766c9be1204f2fd92487d5a0856232b87nVyso3tfMAcgO[] = {
/* columns rows colors chars-per-pixel */
"64 64 155 2 ",
"   c black",
".  c #0D673F",
"X  c #0B683F",
"o  c #12643F",
"O  c #0F6740",
"+  c #0E6A42",
"@  c #146542",
"#  c #1B6545",
"$  c #136B45",
"%  c #1A6A47",
"&  c #176F48",
"*  c #1C6D49",
"=  c #147047",
"-  c #167048",
";  c #1B724C",
":  c #1F7650",
">  c #206647",
",  c #216748",
"<  c #226C4C",
"1  c #286D4E",
"2  c #22714E",
"3  c #2A6E50",
"4  c #267351",
"5  c #2B7554",
"6  c #2D7957",
"7  c #307657",
"8  c #317759",
"9  c #357C5D",
"0  c #3A7C5F",
"q  c #3C7E61",
"w  c #417E63",
"e  c #487F66",
"r  c #33815F",
"t  c #368060",
"y  c #3C8162",
"u  c #428165",
"i  c #448569",
"p  c #4E866D",
"a  c #45896B",
"s  c #4A8A6E",
"d  c #50856D",
"f  c #4D8C71",
"g  c #538D73",
"h  c #5C8C76",
"j  c #5A8F78",
"k  c #549277",
"l  c #579178",
"z  c #5C927A",
"x  c #608E79",
"c  c #699782",
"v  c #639A82",
"b  c #6F9986",
"n  c #6E9E89",
"m  c #749D8B",
"M  c #789D8D",
"N  c #75A18E",
"B  c #79A08E",
"V  c #7DA493",
"C  c #7DA996",
"Z  c #82A696",
"A  c #81A997",
"S  c #8AA79B",
"D  c #84AB9A",
"F  c #89AD9D",
"G  c #85B09D",
"H  c #96AEA3",
"J  c #8BB4A1",
"K  c #95B3A6",
"L  c #9AB0A6",
"P  c #97B6A9",
"I  c #98B5A9",
"U  c #9AB6A9",
"Y  c #95B8A9",
"T  c #9ABAAC",
"R  c #9BBBAC",
"E  c #A3B7AE",
"W  c #A0B9AE",
"Q  c #A3BEB2",
"!  c #A3BEB3",
"~  c #A9BEB4",
"^  c #A5C1B5",
"/  c #A9C2B7",
"(  c #A6C5B8",
")  c #A8C6B9",
"_  c #ABC5BA",
"`  c #ABC8BC",
"'  c #B2C4BC",
"]  c #B2CCC1",
"[  c #B9CBC3",
"{  c #BFD1C9",
"}  c #C4CFCA",
"|  c #C5D2CD",
" . c #C8D4CE",
".. c #CBD4D0",
"X. c #CAD6D1",
"o. c #CDD9D4",
"O. c #D5D5D5",
"+. c #D2DAD6",
"@. c #D4DDD9",
"#. c #D5DEDA",
"$. c #DBDBDB",
"%. c #D8DDDB",
"&. c #DCDCDC",
"*. c gray87",
"=. c #DFDFDF",
"-. c #D6E0DC",
";. c #DCE2DF",
":. c #DDE2E0",
">. c #DFE8E4",
",. c gray88",
"<. c #E1E1E1",
"1. c #E2E2E2",
"2. c gray89",
"3. c #E3E6E4",
"4. c #E4E4E4",
"5. c gray90",
"6. c #E6E6E6",
"7. c #E7E7E7",
"8. c #E6EAE8",
"9. c #E7EAE9",
"0. c gray91",
"q. c #E9E9E9",
"w. c #E9EBEA",
"e. c #EAEAEA",
"r. c gray92",
"t. c #E9ECEB",
"y. c #ECECEC",
"u. c #EEEEEE",
"i. c #EFEFEF",
"p. c #ECF0EE",
"a. c #EEF1EF",
"s. c #EEF1F0",
"d. c #EFF2F1",
"f. c #EEF4F1",
"g. c gray94",
"h. c #F1F1F1",
"j. c #F0F3F1",
"k. c gray95",
"l. c #F3F3F3",
"z. c #F2F4F3",
"x. c #F3F4F3",
"c. c #F2F5F3",
"v. c #F3F6F4",
"b. c #F4F4F4",
"n. c gray96",
"m. c #F4F7F5",
"M. c #F4F7F6",
"N. c #F6F6F6",
"B. c gray97",
"V. c #F5F8F7",
"C. c #F8F8F8",
"Z. c #F9F9F9",
"A. c gray98",
"S. c #FBFBFB",
"D. c #FDFDFD",
/* pixels */
"                                                                                                                                ",
"                                                                                                                                ",
"                                                                                                                                ",
"      $ $ & $ % & $ $ $ $ $ & $ $ $ $ & & $ & $ $ & $ & $ & & $ & $ $ & + $ $ $ * + $ $ $ ; + $ ; + * $ $ * $ & $ = 9           ",
"      > * 1 # < , % < @ < * # 0 q w w w e q e w w e q e q 0 u w w u 0 u y w u 0 u u w u 0 e q w 0 # < & # 1 % < * # w           ",
"      - & * ; & ; ; $ ; & & ; ( n.s.s.v.t.v.r.g.z.r.z.r.y.n.r.g.y.z.n.r.S.a.g.n.9.v.g.a.V.6.v.n.R = 2 $ ; < $ 2 $ ; q           ",
"      $ $ * X $ $ @ $ O @ $ O ^ n.y.y.g.r.z.2.y.v.6.g.r.y.n.6.s.y.g.C.6.a.r.t.s.:.n.n.y.n.2.n.n.K X % $ . < X % $ X 9           ",
"      * % < # * * % * # & % % ^ 1.0.r.;.6.1.1.r.=.6.4.1.r.=.1.6.1.y.=.#.C N A N Z y.=.6.1.=.y.&.U % < & # < $ < & # y           ",
"      & & * & & & & $ & $ & & ( D.g.l.B.g.S.y.l.S.y.S.g.g.D.y.C.x.v.D.#.+ & $ & & S.C.g.D.6.D.S.R $ ; $ & < $ ; $ - 9           ",
"      @ @ * @ % % # % o % $ @ ! ,.r.r.,.4.1.1.y.1.4.4.1.6.,.1.6.1.r.2. .$ # & . < y.,.0.6.=.r.=.K @ , $ o < @ % % @ q           ",
"      & & * & & & & $ $ & $ & ) n.l.n.g.g.g.y.g.g.g.g.y.g.b.y.b.g.n.n.#.+ & $ = * D.b.l.n.6.D.g.R $ < $ = 2 $ & $ $ t           ",
"      $ + % O $ $ O $ X @ $ + ^ D.y.g.g.r.B.r.g.S.0.S.y.y.D.6.v.g.g.D.+.X + $ + % n.B.y.D.1.n.n.Y X & + X % X $ $ X 9           ",
"      % * < # * * % * @ % % % ! &.6.6.$.6.&.$.6.$.1.,.$.6.O.1.,.=.r.&.+.n b N c m r.$.1.=.$.r.$.K $ < % @ 2 % < * # y           ",
"      ; & & ; & * - % - & & - ` D.g.n.S.s.D.y.z.S.y.S.g.v.D.y.S.v.n.D.y.D.n.n.D.r.D.D.n.D.6.D.D.R = 2 $ ; < $ ; $ - t           ",
"      @ @ < @ % % @ % O % $ @ ! 0.0.y.6.4.0.1.o.| ....} X... .X. .+. .| +.X.o.X.| y.6.6.r.=.y.r.U o % $ o < @ % % @ 0           ",
"      * & & % * & & & % % % & ) g.g.g.y.y.g.r.a i s i s s y s a a a i s i i a i a n.g.g.n.1.n.y.R $ < $ & ; $ < & $ q           ",
"      $ $ * + $ $ + $ O @ + + ! S.g.g.n.y.S.r.+ + $ O $ @ + % + $ o X * X $ $ X & S.C.y.D.6.n.n.P X & o X * X $ $ X 9           ",
"      # # < o < # % * o < # # W O.1.1.O.} L E * # < # < & @ < % % * o 2 $ # & # < / H | $.O.t.O.K # < & # 1 # , < o u           ",
"      ; - - 2 & ; ; $ : & & ; ] S.n.n.S.C : 2 % 4 & ; 4 % 4 ; - 2 = ; ; $ ; $ ; ; $ ; J D.r.D.S.R - 2 $ ; 2 - 2 $ ; q           ",
"      $ % < @ % % % % O % $ $ ! r.6.#.+.n @ * 5 4 7 5 8 % @ $ % % $ o * $ % & o * $ @ D r.&.y.r.K o < % o < $ & & o q           ",
"      * * < * < * * * * * % * ! 6.9.l g q * 2 ) _ _ ' ~ 5 & < * < * * < & < * & < $ * F r.=.y.2.R & < * * 1 & < * & q           ",
"      $ $ % + $ $ % $ + $ $ $ ( S.y.$ % $ + * g.C.y.C.i.5 + % $ $ X X & X $ $ X * . $ D D.6.n.S.U X & $ $ * o & $ + 9           ",
"      , < 1 # < < # < # < * % E O.$.< # < # < =.O.} E E 7 # 3 * , < # 1 % > u d g % % c E E ' L M % < < # 1 % < < # e           ",
"      ; & ; 2 & ; & % : & & ; ` S.v.& 4 & ; 2 n.S.R ; ; & ; & - ; = ; ; & ; ) D.y.= ; & - 2 $ & ; = 2 $ ; < - 2 & ; t           ",
"      $ $ * @ $ $ $ @ + % $ $ ! v.r.2 2 4 * 4 y.g.I O % % @ % $ # $ X < - 2 ^ g.6.- 2 * + < $ $ * + * @ O < + % $ @ 9           ",
"      < * 3 * < < * < * * * * ! 4.6.P P U U U 0.1.I * < * % < < 2 & * 7 R P o.6.=.T P z % 3 & < < % 3 & * 5 % < * % u           ",
"      $ $ & $ $ % % @ + % $ & ) S.g.n.n.y.S.y.l.C.P & & $ & % $ $ $ = 9 D.g.n.D.r.S.S.D + < + $ * $ * $ $ * + & $ + 9           ",
"      * * < # < * * * % * % % W :.2.2.&.=.1.$.6.&.K # < < % < * < * o 0 6.$.6.1.$.9.$.P i p i i q % < * # 3 # * < # y           ",
"      ; - < 2 ; ; ; & ; & ; ; ` S.v.n.n.g.S.y.n.B.R ; 4 & ; & ; 2 = 2 r D.n.n.D.y.D.n.y.s.:.f.y.U & 4 $ : < & 4 - ; y           ",
"      $ $ % + $ $ @ @ O @ + O ! b.r.y.g.r.g.4.y.v.K + % @ + $ @ $ @ X 7 n.y.y.n.6.g.n.r.S.1.x.v.P X % + O < O $ $ O 9           ",
"      < < 3 # < < * < % < * < ! $.1.1.$.,.$.$.6.$.K & < < % < < < & > 0 6.=.r.$.=.9.&.4.=.O.r.O.U % 3 * % 3 * < * % y           ",
"      $ $ & & $ & $ $ & & $ % ( S.v.l.B.y.S.y.b.S.P $ * $ & & & & & & 6 D.g.n.D.t.S.M.g.S.7.S.C.R $ * $ - * $ * $ & q           ",
"      @ $ < @ & @ % % . % % @ ! 4.0.r.1.4.4.;.r.1.K @ * % o * % # $ o 6 } ' 6.6.=.i.=.r.r.$.i.2.U o < o o 2 o % & o 0           ",
"      ; & * ; - 2 & % ; & * & ` l.l.g.g.g.l.y.n.g.R - < & ; < - 2 & 2 2 r r ' V.r.S.g.l.B.2.S.g.W & 2 & 2 2 - 2 & 2 u           ",
"      $ @ % @ @ @ + . + & @ + ! S.r.g.l.0.C.6.y.S.K . $ $ X $ @ o X X & X . ^ D.3.B.B.a.S.=.B.B.U . * . X < X @ @ X 0           ",
"      # * < # * % & v m N N m { $.6.4.$.4.$.=.6.$.K # < % # 9 N N 6 o < $ # ^ %.=.r.$.7.=.$.i.O.U o < & o 1 o < ; o r           ",
"      $ & & & & % & X.D.v.V.S.v.D.n.n.S.g.S.y.z.S.T $ & $ $ f B.z.a = & . & ) D.u.D.B.l.D.6.D.S.T X ; X - 2 X ; $ $ 0           ",
"      $ @ & @ * q 9  .r.3. .| X.X.|  .| | | | X.| C @ % % o f r.3.i o * . $ F  .} i.7.7.u.&.g.6.U . < o o < o % $ . 0           ",
"      < & < - f | | 9.t.:.s s s a f s s f s f a s t ; < & * g y.t.a 2 2 @ 2 r f f B.u.g.g.3.Z.u.T & 4 = & 2 & 2 - ; y           ",
"      $ $ & $ f y.v.y.D.o.$ + & + @ $ $ $ $ % $ $ % $ $ $ & f v.a.a X & X = & X * B.l.r.D.3.x.n.T X * o = * . & $ $ 9           ",
"      % % < # g $.=._ S F % @ * @ & % # * # < * # < # < z h A =.$.A x z $ < % o 1 r.O.6.&.&.u.O.K $ < % o < @ < % @ y           ",
"      $ & * = k l.S.i & & & & & & % & & & & * @ & & $ & 6.D.y.S.x.S.D.-.. & = = & D.S.n.D.0.D.Z.R $ * $ - ; $ * $ $ 9           ",
"      $ $ * o g r.r.f 4 5 4 5 7 5 5 7 6 5 5 8 5 6 7 5 5 -.s.1.y.0.g.g. .o $ $ . , g.t.r.g.,.g.r.P . < $ o < . % $ + 0           ",
"      * * < * k 7.t.[ _ _ _ ` / ) ) _ / / ` / ` _ / ) ~ 9.6.r.r.7.x.0.+.$ 2 & & 2 n.6.u.u.,.x.7.R & < $ < 2 & < * * q           ",
"      $ $ * $ g z.g.z.D.g.b.C.g.D.y.v.V.y.S.r.y.n.r.n.r.r.D.r.n.g.x.D.+.o = $ X * Z.Z.a.D.3.B.Z.U $ * $ $ * $ * $ $ 9           ",
"      < < < # i U U ~ H ~ W U ..O.=.=.O.&.$.$.1.O.=.$.$.=.O.$.&.O.3.O. .j h 9 # 1 ^ L  .$.O.7.O.H # 1 * # 1 % < < # u           ",
"      - & & - * & ; & - % & - ` D.n.S.n.g.D.y.V.D.g.D.g.g.D.y.S.B.S.D.g.D.n.v ; = . ; G D.r.D.S.R = ; $ ; 2 $ ; $ - q           ",
"      @ & & @ # $ @ $ @ @ $ @ ! g.r.y.y.6.g.1.r.i.4.i.6.r.n.6.y.r.u.x.3.z.u.z $ < . . D l.=.i.g.K X * o . * + % $ + 0           ",
"      < < 2 < < < < 2 * < * * ! $.6.4.,.1.,.=.6.&.1.1.$.1.=.=.1.=.r.$.1.7.%.c % 1 & < D ,.$.y.&.P % 1 * * 5 % < < % u           ",
"      $ $ * $ $ & $ $ $ $ $ & / D.n.g.C.r.D.r.l.n.y.C.g.n.D.r.n.g.n.D.r.S.n.v & * X $ G D.9.C.C.R $ * $ $ * $ & $ $ 9           ",
"      & < < # < * * < @ < < % ! ,.1.1.1.=.1.$.6.=.=.1.$.2.$.$.1.=.7.,.=.7.;.A s g s p R 1.$.r.=.K % < * % 3 @ < < # w           ",
"      ; - * - * ; * $ ; & & & ) n.g.n.g.y.B.y.n.g.g.n.g.n.n.i.b.i.S.B.r.S.n.t.t.;.r.9.r.n.6.D.l.R = 2 $ ; 2 $ 2 & - t           ",
"      $ o & . $ $ O @ X @ $ @ ^ n.i.i.g.r.v.r.y.C.r.g.r.y.D.6.n.y.g.D.6.n.a.y.S.6.n.v.r.C.1.l.l.K X % + X % X % @ X 9           ",
"      < < 1 < < < < < * 8 F F | =.2.2.=.=.=.=.2.$.=.=.=.1.$.=.,.=.6.$.+.V M C N C 6.=.1.,.$.A m x * 1 ; < 3 * 1 < * u           ",
"      * $ ; - & & & $ & q n.M.a.D.i.l.v.y.S.r.l.n.y.B.i.i.D.r.n.n.n.D.+.$ - $ $ * S.n.g.D.7.+ ; * $ 2 $ & < $ * $ - 0           ",
"      % % < @ * * % q q j 2.3.3.2.1.4.=.1.1.=.7.1.=.4.=.2.2.=.1.=. .[ ~ @ % 9 w i y.1.O.[ ' $ # < @ < % @ 1 $ % & @ q           ",
"      * - < ; * * * ) #.#.s.x.y.g.g.g.i.y.g.r.y.i.r.i.r.i.y.t.g.r.v r y $ ; K -. .M.s.K r i $ 2 2 & 2 $ 2 < $ 2 * ; y           ",
"      $ @ % + $ $ $ | S.r.g.g.y.B.r.g.g.7.n.6.i.l.7.l.r.r.S.6.g.r.i X % X $ W n.6.n.n.C . * X + % X % $ X * X # $ O 9           ",
"      % % 2 # * % % N m F D C F M F D V F V A G B F Z Z F M F Z Z 8 @ 2 # % v B F F B g # 1 $ # < % < * # < $ < % @ y           ",
"      ; & * ; & * ; $ ; & & ; & ; & - ; * ; 2 $ ; * - ; & ; ; - ; $ ; ; = ; - ; ; $ ; & - 2 $ ; 2 $ 2 $ ; 2 = 2 $ ; t           ",
"      q 0 u 9 y t 0 q 9 q q 9 q 9 q t 0 y 9 u t 9 y 0 q y 9 w 9 t 9 9 u 9 r r 0 u r 9 t 9 u 9 0 u 9 y r 9 u 9 q q 9 j           ",
"                                                                                                                                ",
"                                                                                                                                ",
"                                                                                                                                "
};
