/* XPM */
static char *_93c2699a0ce4644cdde8900ded71961SMiQQuOsErxFd4Bl[] = {
/* columns rows colors chars-per-pixel */
"64 64 229 2 ",
"   c #160E0D",
".  c #16140D",
"X  c #141211",
"o  c #191614",
"O  c #1C1915",
"+  c #161918",
"@  c #1E1D1B",
"#  c #2A0C0B",
"$  c #380504",
"%  c #2B100F",
"&  c #3D100C",
"*  c #241414",
"=  c #2B1713",
"-  c #231B15",
";  c #211E1D",
":  c #2A1B1A",
">  c #391616",
",  c #1D2413",
"<  c #1E211D",
"1  c #22201E",
"2  c #2A221A",
"3  c #32281E",
"4  c #0E0C2B",
"5  c #1E1E22",
"6  c #17152A",
"7  c #1A1836",
"8  c #221D22",
"9  c #24132B",
"0  c #261031",
"q  c #1D2020",
"w  c #222120",
"e  c #2B2827",
"r  c #362E28",
"t  c #34312C",
"y  c #3B332B",
"u  c #383532",
"i  c #3C3834",
"p  c #3D3B3B",
"a  c #4D0000",
"s  c #490706",
"d  c #550505",
"f  c #55120E",
"g  c #411818",
"h  c #640100",
"j  c #6A0505",
"k  c #720201",
"l  c #7C0104",
"z  c #7C090B",
"x  c #6F1211",
"c  c #47332D",
"v  c #463D35",
"b  c #403E3E",
"n  c #583333",
"m  c #732828",
"M  c #484602",
"N  c #47413C",
"B  c #584738",
"V  c #1F0044",
"C  c #131448",
"Z  c #060456",
"A  c #161456",
"S  c #2C0749",
"D  c #330452",
"F  c #32025B",
"G  c #24225C",
"H  c #0C0F68",
"J  c #11146B",
"K  c #04067B",
"L  c #160878",
"P  c #101275",
"I  c #262464",
"U  c #464644",
"Y  c #4D4C4C",
"T  c #524E49",
"R  c #4D5147",
"E  c #585655",
"W  c #67594C",
"Q  c #705843",
"!  c #645C54",
"~  c #645C58",
"^  c #755857",
"/  c #5E605D",
"(  c #686057",
")  c #65615B",
"_  c #6A615A",
"`  c #736458",
"'  c #49486F",
"]  c #656463",
"[  c #696565",
"{  c #696768",
"}  c #6C6A6A",
"|  c #716F6D",
" . c #72706F",
".. c #777373",
"X. c #7C7C7C",
"o. c #860506",
"O. c #8B0002",
"+. c #940305",
"@. c #9B0100",
"#. c #920F11",
"$. c #851415",
"%. c #A40300",
"&. c #A90809",
"*. c #B40200",
"=. c #BA0507",
"-. c #B30C0C",
";. c #A7130A",
":. c #B2150B",
">. c #A70E12",
",. c #B50712",
"<. c #892516",
"1. c #BE2A00",
"2. c #98082C",
"3. c #A70639",
"4. c #933231",
"5. c #C70502",
"6. c #D60403",
"7. c #DC0302",
"8. c #C30A11",
"9. c #D9031D",
"0. c #E20502",
"q. c #EB0504",
"w. c #E70A09",
"e. c #F40303",
"r. c #FC0101",
"t. c #F60209",
"y. c #E00018",
"u. c #FA2000",
"i. c #DE5422",
"p. c #8E0B42",
"a. c #AA0344",
"s. c #C63D42",
"d. c #856E5C",
"f. c #897768",
"g. c #957B64",
"h. c #877C7E",
"j. c #F05651",
"k. c #DC6A6E",
"l. c #FB7B78",
"z. c #40A158",
"x. c #868702",
"c. c #9F8200",
"v. c #A08500",
"b. c #FEFD04",
"n. c #FAFB0E",
"m. c #F9FA16",
"M. c #97816C",
"N. c #94847A",
"B. c #A28E7B",
"V. c #010283",
"C. c #01038C",
"Z. c #0B0A88",
"A. c #050495",
"S. c #0B0B94",
"D. c #01009B",
"F. c #0100A5",
"G. c #0100AB",
"H. c #0806A9",
"J. c #0202B4",
"K. c #0202BC",
"L. c #201CBA",
"P. c #525395",
"I. c #0101C4",
"U. c #0100CB",
"Y. c #0200D2",
"T. c #0500D8",
"R. c #7F9F90",
"E. c #848383",
"W. c #8D8C8C",
"Q. c #938B85",
"!. c #918E8E",
"~. c #938E8F",
"^. c #918F90",
"/. c #949292",
"(. c #9D9C9D",
"). c #A89887",
"_. c #B49A85",
"`. c #B99F8A",
"'. c #B5A08E",
"]. c #BAA088",
"[. c #B5A392",
"{. c #B9A898",
"}. c #A4A3A3",
"|. c #ADACAC",
" X c #B4ADAC",
".X c #B5B1AA",
"XX c #B1AFB0",
"oX c #B5B4B4",
"OX c #B9B6B5",
"+X c #B9B7B8",
"@X c #BDBCBC",
"#X c #DE9A9F",
"$X c #E0999A",
"%X c #C4B09A",
"&X c #C4B4A6",
"*X c #C1BEBC",
"=X c #F6AEAF",
"-X c #DEC5AE",
";X c #DCC6B1",
":X c #DBC9BA",
">X c #E1C4AE",
",X c #EDD4BA",
"<X c #91DDE8",
"1X c #C5C5C4",
"2X c #C8C6C5",
"3X c #CBCBCA",
"4X c #D9C7C8",
"5X c #D3D3D3",
"6X c #D8D8D8",
"7X c #DEDCDC",
"8X c #F4DCC3",
"9X c #FCDEC4",
"0X c #F6DFCA",
"qX c #E0DEDF",
"wX c #DEE0DF",
"eX c #FCE0C6",
"rX c #F3E0CB",
"tX c #FBE3CC",
"yX c #E1E1DF",
"uX c #F9E5D2",
"iX c #E1DFE0",
"pX c #DDE2E1",
"aX c #E1E0E0",
"sX c #EDEDED",
"dX c #F1F2EF",
"fX c #F5F4F5",
"gX c #F8F5F5",
"hX c #F9F9F7",
"jX c #FDFCFC",
/* pixels */
"z.z.z.z.z.z.z.z.z.z.z.z.z.z.z.z.z.z.z.z.z.z.z.jX_ 1 < 1 @ ; ; @ w z.z.z.z.z.z.z.z.z.z.z.z.z.z.z.z.z.z.z.z.z.z.z.z.z.z.z.z.z.z.z.",
"z.5Xz.z.z.z.z.z.z.z.z.z.z.z.z.z.z.z.z.z.iX}.z.uX_ - - : : : : : : }.z.z.z.:Xz.z.z.E.}.z.z.z.z.z.z.z.z.z.z.z.z.z.z.3Xz.z.z.z.5Xz.",
"z.z.z.z.z.z.z.z.z.z.z.z.z./.z.z.z.} z.E.b t w G x l k O.O.l l l l n N p b b z.z.z.E z.z.z.z.| z.z.z.z.z.z.z.z.z.z.z.z.z.z.Y z.z.",
"z.z.z.z.z.z.z.z.z.z.z.z.z.z.z.z.z.z.jXiX; X X < -.r.6.r.r.r.q.w.w.f 1 O q t jXjXz.z.z.z.z.z.z.z.z.z.z.z.z.z.z.z.z.z.z.z.z.z.z.z.",
"z.z.z.z.z.z.z.z.z.z.z.z.z.z.z.z.z.z./.Q.#.k h #.6.r.j.$Xl.l.j.w.w.;.#.$.$.m ~.oXz.z.z.z.z.z.z.z.z.z.z.z.z.z.z.z.z.z.z.z.z.z.z.z.",
"z.z.z.z.z.z.z.z.z.z.z.z.z.z.z.z.jX@X; g r.5.*.t.e.r.=XjXgXgX=Xe.7.q.r.r.r.;.; ] z.z.z.z.z.z.z.z.z.z.z.z.z.z.z.z.z.z.z.z.z.z.z.z.",
"z.1Xz.z.z.z.z.z.z.z.z.z.7Xz.z.R.~ Y $.$.,.@.o.8.k.#X:X6X6X6X4X$X#Xs.=.8.:.;.$.m E b (.z.z.z.z.z.z.z.z.z.z.z.pXz.z.z.z.z.z.R.1Xz.",
"z.z.z.z.z.z.z.z.z.z.z.z.z.z.fXE = @ q.q.q.5.%.q.=XfX5XdXsXgXgXgXhXj.q.q.q.6.w.>.; 1 }.z.z.z.XXz.z.z.z.z.z.z.z.z.z.z.z.z.z.z.z.z.",
"z.z.z.z.z.z.z.z.z.z.z.z.z.z.jX_ : = e.e.q.=.%.e.=XhX7XhXfXhXhXfXdXj.e.e.q.5.q.-.8 8  XjXz.z.z.z.z.z.z.z.z.z.z.z.z.z.z.z.z.z.z.z.",
"z.z.z.z.z.z.z.z.z.z.z.z.jX~.8 ,.r.%.r.r.r.*.# - ; 5 O @ @ 1 8 1 1 1 ; 0.r.6.r.r.r.@.% 5 aXz.z.z.z.z.z.z.z.z.z.z.z.z.z.z.z.z.z.z.",
"z.z.z.z.z.z.z.z.z.z.z.z.jX~.; ,.t.%.r.r.0.%.# ; ; ; O ; ; ; 1 ; ; ; ; 5.6.5.r.r.r.@.% @ z.z.z.z.z.z.z.z.z.z.z.z.z.z.z.z.z.z.z.z.",
"z.z.z.z.z.z.z.z.z.z.z.z.jX~.5 ,.t.&.t.7.; o   ; O ; @ @ @ @ ; ; ; ; ; ; , f t.t.t.@.% w aXz.z.z.z.z.z.z.z.z.z.z.z.z.z.z.z.z.z.z.",
"z.z.z.z.z.z.z.z.z.z.z.z.jX/.8 ,.e.%.e.6.8 + X @ ; ; O 8 @ 1 w 1 1 1 1 < , f e.t.q.@.% w aXz.z.z.z.z.z.z.z.z.z.z.z.z.z.z.z.z.z.z.",
"z.z.z.z.z.z.z.z.z.z.z.z.z./.< -.r.*.#.$.8 O X @ ; 8 @ 1 ; 1 1 w ; 1 1 1 @ > $.>.e.@.% w aXz.z.z.z.z.z.z.z.z.z.z.z.z.z.z.z.z.z.z.",
"z.z.z.z.z.z.z.z.z.z.z.z.jX/.q ,.r.*.8 ; ; o X ; ; ; O q < q 1 1 1 ; ; @ ; @ 5 f r.@.% q z.z.z.z.z.z.z.z.z.z.z.z.z.z.z.z.z.z.z.z.",
"z.z.z.z.z.z.z.z.z.z.z.z.jX/.1 ,.r.&.; 8 @ O ) OXOXOX/.[.[.[.{.OXOXOXOXt ; O @ x r.@.% @ z.z.z.z.z.z.z.z.z.z.z.z.z.z.z.z.z.z.z.z.",
"z.z.z.z.z.z.z.z.z.z.z.z.jX/.; ,.r.&.1 1 ; ; N.jXjXjX4X9X,XeXuXjXjXjXjXi ; O < x r.%.% @ pXz.z.z.z.z.z.z.z.z.z.z.z.z.z.z.z.z.z.z.",
"z.z.z.z.z.z.z.z.z.z.z.z.oX{ + z &.$.- O O O E oX@X*X).{.{.{..X@X*X+X<Xe O O O f *.k . + (.z.N.z.z.z.z.z.z.z.z.z.z.z.z.z.z.[ }.z.",
"z.z.z.z.z.z.z.z.z.z.z.z.z./.1 1 ; * eXeXeX'.~.jX[ ; &X9XeXeX[.1 8 oXjX0XeX;X9X].; X o @ aXz.z.z.z.z.z.z.z.z.z.z.z.z.z.z.z.z.z.z.",
"z.z.z.z.z.z.z.z.z.z.z.pXaX~.i e ; o eX,X9X].Q.jX[ ; .X8XeX,X'.1 ; oXjXtX9X;X9X[.@ X e i 3XaXz.z.z.z.z.z.z.z.z.z.z.z.z.z.z.z.z.z.",
"z.z.z.z.z.z.z.z.z.z.z.8 w g.9X! ; O eXeXeX'.Q.jX) @ &X9X9XeX'.1 ; XXjXrXeX-X9X].@ - _.eXi ; *Xz.z.z.z.z.z.z.z.z.z.z.z.z.z.z.z.z.",
"z.z.z.z.z.z.z.z.z.z.z.o O W `.v . . _._.].d.` @XT - N.]._.].f.w ; N.+X).].B._.| o o d.].e o W.z.z.z.z.z.z.z.z.z.z.(.z.z.z.z.}.z.",
"z.z.z.z.z.z.z.z.z.z.z.X X B g.r X . - 3 g.Q B M.f.f.d.g.g.g.g.f.f.f.M.f.g.` - O . . Q g.2 .  .z.E.z.z.z.z.z.z.z.z.z.z.z.z.z.z.z.",
"z.z.z.z.z.z.z.z.z.z.z.w w f.9XW @ O ; v 9X].g.rXtX9X-X9X8X9XtXuXtXeXeXrX9X%X2 1 @ 2 B.eXi 1 @Xz.z.z.z.z.z.z.z.z.z.z.z.z.z.z.z.z.",
"z.z.z.z.z.z.z.z.z.z.z.z.oXQ.! t @ O `._.! N c ! &XeX>XeX8XeXtXuXtXN.! ! ! W ].f.8 X v ~ |.z.z.z.z.z.z.z.z.z.z.z.z.z.z.z.z.z.z.z.",
"z.z.z.z.z.z.z.z.z.z.z.z.z.z.@ @ ; O 9X;X; + X < {.9X>XeX8XeXeXtXtX( 1 < ; r eX].; X o 8 z.z.z.z.z.z.z.z.z.z.z.z.z.z.z.z.z.z.z.z.",
"z.z.z.z.z.z.z.z.z.z.z.z.z.5X1XY ; o ;X%X@ X X < r r 2 y r r t r y 2 O @ - 3 >XB.+ ; W.1Xz.z.z.z.z.z.z.z.z.z.z.z.z.z.z.z.z.z.z.z.",
"z.z.z.z.z.z.z.z.z.z.z.z.z.z.z.] ; O 9X;X< X X @ ; ; O ; ; 1 1 1 1 1 < 1 ; r eX'.8 5 z.z.z.z.z.z.z.z.z.z.z.z.z.z.z.z.z.z.z.z.z.z.",
"z.z.z.z.z.z.z.z.z.z.z.hXz.z.jX..i e ;X%Xu 8 . @ - @ @ ; O @ < ; 1 @ < y y N -X).u t z.z.z.z.z.z.z.z.z.z.z.z.z.z.z.z.z.z.z.z.z.z.",
"z.z.z.z.z.z.z.z.z.z.z.z.z.z.z.z.z.*X; i eX_.- @ @ ; O 1 @ 1 w 1 1 1 < ;XeX&X1 ) z.z.z.z.z.z.z.z.z.z.z.z.z.z.z.z.z.z.z.z.z.z.z.z.",
"z.z.z.z.z.z.z.z.z.z.z.z.z.z.z.z.z.z.{ | [.f.c ) ( ( E _ ! ) ( ) ) ( ( ).'.N.{ /.z.z.z.z.z.z.z.z.z.z.z.z.z.z.z.z.z.z.z.z.z.z.z.z.",
"z.z.z.z.z.z.z.z.z.z.z.z.z.z.z.z.z.z.z.z.; ; f.uXtXtX;XtXrXtXuXuXuXtXtXi 1 u z.z.z.z.z.z.z.z.z.z.z.z.z.z.z.z.z.z.z.z.z.z.z.z.z.z.",
"z.z.z.z.z.z.z.z.z.z.z.z.jXjXjXjXjXOXjXiX8 5 f.uXtXtX:XtXrXeXtXuXuXtXtXc 1 t jXjXjXW.oXjXz.z.z.z.z.z.z.z.z.z.z.z.z.z.z.z.z.z.z.z.",
"z.z.z.z.z.z.z.z.z.z.z.z.z.oX[ { { T } [ -.o.c ^ _ ~ ! _ ! _ _ [ _ _ _ :.-.$.} { [ p Y <XsXz.z.z.z.z.z.z.z.z.z.z.z.z.z.z.z.z.z.z.",
"z.z.z.z.z.z.z.z.z.z.jXjXjX/.5 5 ; 5 ; > r.*.# 8 ; ; ; q < w q q w 8 2 7.r.;.< < @ X + @ wXz.z.z.z.z.z.z.z.z.z.z.z.z.z.z.z.z.z.z.",
"z.z.z.z.z.z.z.z.z.z.aXu p <.0.w.7.@.7.0.r.,.L K.J.U.p.0.6.0.3.G.H.J.J.9.e.6.0.7.7.*.=.7.c p +Xz.z.z.z.z.z.z.z.z.z.z.z.z.z.z.z.z.",
"z.z.z.z.z.z.z.z.z.z.7X; 2 #.r.r.r.%.r.r.r.,.L U.U.U.3.r.r.r.3.K.K.I.U.y.e.6.r.r.r.*.5.e.3 , @Xz.z.z.z.z.z.z.z.z.z.z.z.z.z.z.z.z.",
"z.z.z.z.z.z.1X5Xz.1X Xd f z ;.>.>.z 7.0.7.@.0 G G I #.6.6.7.>.I I G G 5.7.5.6.5.>.l +.>.f s R.1X3Xz.z.z.z.z.z.z.5Xz.z.z.z.z.z.z.",
"z.z.z.z.z.z.z.z.z.; g e.q.$.8 @ : = r.r.r.5.v.b.b.b.1.r.t.r.i.m.m.n.b.u.r.7.e.-.< o X , 0.r.O @ ] z.z.z.z.z.z.z.z.z.z.z.z.z.z.z.",
"z.z.z.z.z.z.6Xz.z.{ ^ -.>.4.] [ _ T -.-.a.$.c.b.b.b.<.a.a.a.i.m.m.n.b.3.a.2.=.4.[ p Y ] :.:.R } /.z.z.z.z.z.z.z.z.z.z.z.z.z.z.z.",
"z.z.z.z.z.z.z.z.z.z.iX; w W.jXjXjX@X1 7 U.P x.b.b.b.G U.U.U.P.m.m.m.b.L.Y.C.; [ jX~.oXjXp @ @Xz.z.z.z.z.z.z.z.z.z.z.z.z.z.z.z.z.",
"z.E.E z.z.z...z.z.E...w w E ~.W.W.| ; 6 V.Z M x.x.x.C D.F.D.I x.x.x.x.L C.Z ; U ~.E } W.t ; } E.W.z.z.z.z.z.z.z.z.z.z.z.z.z.z.z.",
"z.}.} z.z.z.z.oXz.q r oXXXoX+XoXoXE.oX(.4 4 Z Z.Z.Z.V.G.J.J.D.L P P Z.7 6 9 XXoXoX} E.oXXXoX@ @ Y z.z.z.z.z.z.z.z.z.z.z.z.z.z.z.",
"z.z.z.z.z.z.z.z.z.w p jXjXjXjXjXjXOXjX7X; 6 V.U.U.Y.K.U.T.U.I.K.I.I.U.C @ t jXjXjXW.+XjXjXjXO ; ] z.z.z.z.z.z.z.z.z.z.z.z.z.z.z.",
"z.z.z.z.z.z.z.z.z.8 b jXjXjXjXjXjXoXjX7X; 6 V.I.U.I.J.I.U.I.K.J.K.K.U.7 1 t jXjXjX!.+XjXjXjXO 8 ] z.z.z.z.z.z.z.z.z.z.z.z.z.z.z.",
"z.z.z.z.z.z.z.z.z.@ p jXjXjXjXjXjX+XjXyX5 6 V.I.U.Y.K.U.T.U.I.I.I.I.U.7 5 t jXhXjX/.oXjXjXjXO ; ) z.z.z.z.z.z.z.z.z.z.z.z.z.z.z.",
"z.z.z.z.z.z.(.|.z.o t oXOXoXoXOXoXE.O 6 A.K K A.C.C.K C.C.C.Z.K K V.C.Z.F.Z @ Y oX} E.XXoXoXo o U z.z.z.z.z.z.z.z.z.z.z.z.z.z.z.",
"z.z.z.z.z.z.z.z.z.; p jXjXjXjXjXjX*X- 5 U.G.D.U.U.U.J.U.U.U.K.K.K.I.U.Y.U.Z.8 { jXW.OXjXjXjX+ 8 ] z.z.z.z.z.z.z.z.z.z.z.z.z.z.z.",
"z.z.z.z.z.z.z.z.z.] } +X+XOX+XoXoXW.A J U.F.D.U.U.U.J.U.Y.U.I.K.K.K.U.Y.K.C.A ' oX[ E.oXOXOXY ] ^.z.z.z.z.z.z.z.z.z.z.z.z.z.z.z.",
"z.z.z.z.z.z.z.z.z.z.pX@ < w @ ; @ 6 Y.U.U.G.D.U.U.U.K.Y.T.U.I.K.K.K.U.Y.U.J.U.S.; X o 1 ; ; @Xz.z.z.z.z.z.z.z.z.z.z.z.z.z.z.z.z.",
"z.z.z.z.z.z.z.z.z.z.sX/./././.U w 5 Y.U.I.G.D.U.S.P H P P P J J J H.U.Y.U.J.U.S.w O { /././.+Xz.z.z.z.z.z.z.z.z.z.z.z.z.z.z.z.z.",
"z.z.z.z.z.z.z.z.z.z.z.z.z.z.z.] q + U.I.U.G.D.U.A 8 @ < q w w w 1 Z.U.Y.Y.G.U.S.w w z.z.z.z.z.z.z.z.z.z.z.z.z.z.z.z.z.z.z.z.z.z.",
"z.z.z.z.z.z.z.z.z.z.z.z.z.z.jX] 5 + U.U.U.G.D.U.A ; @ @ @ < 1 1 w S.Y.Y.U.H.U.S.@ w z.z.z.z.z.z.z.z.z.z.z.z.z.z.z.z.z.z.z.z.z.z.",
"z.z.z.z.z.z.z.z.z.z.z.z.z.z.jX] 5 + Y.U.Y.G.F.K.A @ |.<X<X<X(.1 w S.Y.T.Y.K.Y.S.8 1 z.z.z.z.z.z.z.z.z.z.z.z.z.z.z.z.z.z.z.z.z.z.",
"z.z./.z.z.z.pXz.z.z.z.z.z.z.jX] q @ U.I.U.F.D.U.A ; 1X<X<X<XoX@ 2 S.I.Y.I.G.U.S.@ < XXz.z.z.|.z.z.z.z.z.z.z.z.z.z.z.z.z.z.z.z.z.",
"z.z.z.z.z.z.z.z.z.z.z.z.z.z.jX) q o U.U.U.F.D.I.A ; 1X<XhX<XoX@ 8 Z.U.T.U.J.K.S.1 < z.z.z.z.z.z.z.z.z.z.z.z.z.z.z.z.z.z.z.z.z.z.",
"z.z.z.z.z.z.5XsXz.z.z.z.z.fXhX/ + . J.U.I.D.C.K.C @ @X<X<X<X|.@ : Z.K.I.I.J.K.Z.5 @ z.hXz.z.oXz.z.z.z.z.z.z.z.z.sX5Xz.z.z.z.z.z.",
"z.2XX.z.z.z.1X5Xz.z.z.z.aX3X|.n & = F F F S V F 9 O |.<X<X<X(.@ , S F F F S D 0 & & ..}.5Xz.}.z.z.z.aXz.z.z.z.z.5X@Xz.z.z.P.,Xz.",
"z.z.z.z.z.z.z.z.z.z.z.z.jX^.5 x o.k O.O.O.k h O.g @ 1X<X<X<XoX1 1 j o.O.O.l +.O.O.d * @ iXz.z.z.z.z.z.z.z.z.z.z.z.z.z.z.z.z.z.z.",
"z.z.z.z.z.z.z.z.z.z.sXW.W.^ f z O.k O.O.O.k h O.g 1 1X<XhX<XoX1 1 j O.O.O.l O.O.O.d s f h.~.OXz.z.z.z.z.z.z.z.z.z.z.z.z.z.z.z.z.",
"z.z.z.z.z.z.z.z.z.z.z.5 * f +.o.O.k O.O.O.k h O.g @ 1X<X<X<XoX@ @ x O.O.+.l O.O.O.h k O.: 8 @Xz.z.z.z.z.z.z.z.z.z.z.z.z.z.z.z.z.",
"z.z.z.z.z.z.X.W.z.z.X.X o $ d a a $ a a a $ $ a #   ..<X<X<X[ o X $ a a a s a a a $ a a     ..z.z.z.z.z.z.z.z.z.z.h.z.z.z.E z.z.",
"z.5XE.z.z.z.z.z.z.z.3XO O ; ; * - o ; - - o   - O @ oX<X<X<X}.@ @ ; - - ; - ; - ;   o - * 8 oXz.z.z.z.z.z.z.z.z.z.4Xz.z.z.h.7Xz.",
"z.z.z.z.z.z.z.z.z.z.z.O 8 ; 8 ; ; o ; ; ; o X @ ; < 1X<X<X<XoXw ; ; ; ; ; @ 8 O ;   o 8 ; 8 z.z.z.z.z.z.z.z.z.z.z.z.z.z.z.z.z.z."
};
