/* XPM */
static char *_09d87ba68564a67afac0a0de08e41a4p9rOXtvb9aHzY2EU[] = {
/* columns rows colors chars-per-pixel */
"64 64 237 2 ",
"   c #140E0C",
".  c #19150A",
"X  c #1A140B",
"o  c #161414",
"O  c #1A1714",
"+  c #1D1B15",
"@  c #151719",
"#  c #1B161B",
"$  c #1E1D1C",
"%  c #220C00",
"&  c #2C0D00",
"*  c #330D00",
"=  c #231105",
"-  c #281608",
";  c #21190B",
":  c #271A13",
">  c #221D15",
",  c #211F1D",
"<  c #1C2906",
"1  c #1F2016",
"2  c #1F201B",
"3  c #24220C",
"4  c #242014",
"5  c #24211C",
"6  c #2B241C",
"7  c #37351C",
"8  c #181923",
"9  c #1E1F21",
"0  c #211E21",
"q  c #1C2121",
"w  c #1E252A",
"e  c #242321",
"r  c #2A2522",
"t  c #393325",
"y  c #5D2B0A",
"u  c #672A01",
"i  c #762A00",
"p  c #733304",
"a  c #7F3903",
"s  c #783809",
"d  c #6B3A18",
"f  c #7A3B13",
"g  c #7F4717",
"h  c #7E461C",
"j  c #464434",
"k  c #774927",
"l  c #755031",
"z  c #863703",
"x  c #853D05",
"c  c #8E3B01",
"v  c #943D01",
"b  c #9C3C00",
"n  c #853F19",
"m  c #A13F00",
"M  c #8C4303",
"N  c #84420A",
"B  c #8B430A",
"V  c #924203",
"C  c #9D4202",
"Z  c #94430B",
"A  c #984308",
"S  c #9A4C0F",
"D  c #844316",
"F  c #8C4515",
"G  c #82441A",
"H  c #89421B",
"J  c #87491B",
"K  c #954A17",
"L  c #9B4D15",
"P  c #9B511B",
"I  c #9D541D",
"U  c #A14301",
"Y  c #AC4B04",
"T  c #A64B0A",
"R  c #B34D04",
"E  c #BA4D02",
"W  c #B24D09",
"Q  c #AF5100",
"!  c #AC500C",
"~  c #B9550A",
"^  c #BC560D",
"/  c #A24F16",
"(  c #A65115",
")  c #A95113",
"_  c #A4531B",
"`  c #AC5A1B",
"'  c #AC5A1D",
"]  c #B45613",
"[  c #BA5712",
"{  c #B55915",
"}  c #BB5913",
"|  c #B65719",
" . c #B25B1C",
".. c #BB5D1B",
"X. c #B7661B",
"o. c #BE601D",
"O. c #844A25",
"+. c #8C542A",
"@. c #9D5623",
"#. c #975529",
"$. c #9A5E39",
"%. c #A15521",
"&. c #A65B24",
"*. c #AB5B22",
"=. c #A95926",
"-. c #A35E2B",
";. c #B05921",
":. c #976637",
">. c #9B6139",
",. c #926D38",
"<. c #BE6422",
"1. c #B8692B",
"2. c #A56E31",
"3. c #AA6B39",
"4. c #B46A34",
"5. c #BE6E34",
"6. c #B36F3C",
"7. c #BB6F3A",
"8. c #BB7135",
"9. c #B5713D",
"0. c #BB703A",
"q. c #C65E18",
"w. c #DD670C",
"e. c #C96417",
"r. c #C4631D",
"t. c #CC661D",
"y. c #CD6A1D",
"u. c #D56617",
"i. c #DA6715",
"p. c #D56916",
"a. c #D4661B",
"s. c #D9671A",
"d. c #D3691D",
"f. c #D96A1C",
"g. c #C36422",
"h. c #CD6721",
"j. c #C56A26",
"k. c #CD6A24",
"l. c #C56C2B",
"z. c #CB6D2B",
"x. c #D36722",
"c. c #D66625",
"v. c #D16922",
"b. c #D16B29",
"n. c #CC722C",
"m. c #D2712B",
"M. c #C36E32",
"N. c #CB6E31",
"B. c #C86A35",
"V. c #C47236",
"C. c #C97133",
"Z. c #E77222",
"A. c #956442",
"S. c #9D7B47",
"D. c #9B795D",
"F. c #A86C42",
"G. c #A77943",
"H. c #AD734A",
"J. c #AD734C",
"K. c #B57142",
"L. c #B97445",
"P. c #B07348",
"I. c #9B7860",
"U. c #C27548",
"Y. c #9D864D",
"T. c #998351",
"R. c #BC894B",
"E. c #A78F56",
"W. c #B28D52",
"Q. c #B48D5F",
"!. c #AD9554",
"~. c #AA955B",
"^. c #B4975B",
"/. c #9A9374",
"(. c #A98E66",
"). c #A49265",
"_. c #AD9968",
"`. c #B09662",
"'. c #B59A64",
"]. c #AA9873",
"[. c #B5A768",
"{. c #BDA976",
"}. c #C8A969",
"|. c #DCAD6C",
" X c #CFB266",
".X c #C9B26B",
"XX c #D9B06B",
"oX c #CAAF76",
"OX c #CAAE79",
"+X c #D1AC76",
"@X c #C7B177",
"#X c #D7B97B",
"$X c #E2AC67",
"%X c #E5BE7D",
"&X c #DAC279",
"*X c #E6C17D",
"=X c #EBC47E",
"-X c #C5AF89",
";X c #D9BF83",
":X c #D9BF8B",
">X c #E3BC84",
",X c #E5BC89",
"<X c #DBC483",
"1X c #D6C18C",
"2X c #DAC18A",
"3X c #D7C597",
"4X c #E5C682",
"5X c #ECC582",
"6X c #E3C883",
"7X c #EDC983",
"8X c #E3C689",
"9X c #F0CD89",
"0X c #EAD38B",
"qX c #E5CB9B",
"wX c #EDD693",
"eX c #EFD69E",
"rX c #F1D595",
"tX c #F4D897",
"yX c #F4DD95",
"uX c #F5DE99",
"iX c #FADE9B",
"pX c #FDE497",
"aX c #F6E49C",
"sX c #FEE49C",
"dX c #CEC0A3",
"fX c #EBD9A6",
"gX c #F7DEA7",
"hX c #EDD9B1",
"jX c #F5E4A5",
"kX c #FDE4A3",
"lX c #F5E4AD",
"zX c #F9E4AC",
"xX c #F7E4B2",
"cX c #FAE4B2",
"vX c #F3E4BB",
"bX c #FBE9B8",
"nX c #F5E5C3",
/* pixels */
"H.M.M.4.(.zXzXfXgXlXlXvXzXcXzXgX3XlXlX-X1XzXcXbXlXxXzXlXbXlXzX].].zXcXvXe $ 5 w V.V.8.2.oXzXzX3XfXzXlXvXzXzXzXxXfXlXkX`.4.M.M.J.",
"M.d.d.r.W.pXsXwXyXsXsXzXpXsXpXgX:XsXsXOX<XsXsXkXpXsXaXkXsXkXpX'.^.pXkXxX5 5 2 $ k.d.v.X. XkXpX:XaXsXpXlXkXkXsXuXwXsXsXR.r.d.d.H.",
"8.d.d.r.W.pXsXrXyXpXsXzXsXpXsXiX1XkXsXoX;XsXsXzXsXpXsXkXsXkXpX`.^.sXsXxXe , $ 9 v.v.d.X. XsXpX;XaXsXsXzXkXsXsXyXwXkXpXW.r.y.k.P.",
"1.r.X.] Y.6X6X#X>X6X5X8X4X4X4X>X{.6X4X'.}.6X4X>X4X4X6X=X4X8X8XY.Y.<X4X8X, $ $ , <.r.g.{ ^.=X5X@X*X4X4X3X%X4X8X%X#X4X6X2.} r.o.F.",
"(.W.W.Y.u M V x M M V F V M V M s M B p a B V B V V M V M B Z u u M V G O o o @ W.!.Q.:.p V M g M V M h V V M M M V M y G.W.W.).",
"zXsXsX6XV d.x.r.k.v.d.C.d.d.d.d.*.v.d.( [ k.f.l.d.d.d.k.k.k.v.A U k.u.7.5 , , , sXpXsXXXR u.a.' k.d.d.7.v.d.b.h.r.d.y.M <XsXkXvX",
"zXsXkX6XM d.d.g.h.d.c.m.v.d.v.h.*.v.v.( [ d.v.b.v.d.y.d.u.d.x.A U d.d.7., , $ > kXsXpX|.R d.y.*.t.d.v.9.f.k.v.t.g.d.v.M 6XsXsXvX",
"fXtXwX#Xx r.r. .<.r.g.1.r.r.g...%.r.g.L ! r.g.g.r.g.g.r.r.g.g.x v g.g.4., $ $ , eXrXrX}.T e.r.@.o.r.r.3.r.h.g.....q.<.a ;XwXwXhX",
"gXyXaX>Xc h.h.g.k.h.h.j.h.t.h.q.%.h.h.( { t.k.j.h.h.y.k.d.d.k.Z S j.h.4.$ $ , + aXuXtX|.R y.h.&.h.t.t.6.q.h.h.t.<.h.k.M <XaXyXhX",
"jXsXpX6XM v.d.r.k.y.d.n.v.v.v.h.*.v.v.( [ d.v.v.v.d.v.d.u.d.k.A U k.x.7.e 5 , , kXsXsX|.R d.y.' y.k.d.9.u.y.b.t.r.x.k.B 6XsXsXvX",
"lXsXsX5XV d.v.g.r.v.v.z.d.d.d.v.=.v.v.) } d.v.v.d.d.d.d.a.v.x.A C y.d.7.e $ 5 + kXsXkX|.R d.k.*.t.d.d.9.c.d.b.t.g.s.x.V *XsXsXvX",
"bXzXzX8XF M.l.1.<.z.z.U.z.z.z.z.-.z.z.@.` l.z.C.l.l.z.l.k.z.z.F A M.N.L.e 2 5 2 cXcXkX+X( k.l.-.j.l.n.H.m.z.l.j.1.N.M.N 2XzXzXnX",
"xXsXsX4XM d.d.g.h.d.f.N.v.v.d.h.' h.d.( [ d.v.k.d.d.d.v.u.d.d.A C k.d.7.5 , 5 , kXkXkXXXR d.k.;.k.v.d.K.f.d.v.t.r.d.y.M 6XsXsXvX",
"lXsXsX4Xv d.d.g.h.d.d.N.d.d.d.v.*.d.v.( [ d.v.k.d.v.v.v.i.d.v.A C v.d.0.5 , 5 > kXsXsXXXR d.k.*.t.d.d.K.p.v.k.t.r.d.y.M 6XsXsXvX",
"zXsXsX4XM d.d.<.t.d.x.N.d.d.d.h.' v.d.( [ d.d.h.d.d.d.v.i.d.d.Z C k.d.7.5 , , , kXkXkXXXR d.k.*.t.d.d.K.u.b.v.t.r.d.y.M 4XsXsXvX",
"xXkXiX%Xc v.t.r.h.k.q.j.h.x.h.h.&.h.h./ ] d.h.h.v.h.v.v.q.d.k.C C k.h.5., $ $ , jXkXuX+XT q.<._ h.v.d.6.e.h.h.r.q.x.h.M 4XiXaXvX",
":X:X1X{.f *.*.@.&.*.*.-.&.&.*._ +.;.=.J K *.*.=.*.' &.&.` ' =.f x &.*.$.$ # + # 1X2X1X/.o + $ = %.=.*.:. .*.=._ @.' &.s {.1X1XdX",
"cXkXsX4XM d.v.r.h.d.d.z.v.d.v.h.*.v.x.( [ d.v.k.d.k.d.d.d.d.b.A C k.d.0.5 2 5 > sXpXpX{.+ $ 2 - q.h.k.9.d.y.b.t.r.d.y.M <XkXsXvX",
"xXsXsX6Xc d.v.g.h.k.v.C.d.v.d.h.=.v.v._ | d.v.k.v.d.d.y.d.d.x.A C k.d.0.5 2 , 0 kXsXkX[.O q 5 - e.d.d.7.d.d.i.j.t.k.d.M 6XkXsXvX",
"-X@XOX'.p ( ( L ( ) ) %.( ( ( ( G ( ( x Z ) ( _ ( ( ( ) ! ) / p a _ ( #.+ @ O 8 OXoX+XT.X @ O = K / ( #._ _ ! L L _ ( p '.OXOX-X",
":X;X<X}.a [ ] ) ] [ [  .[ [ [ ] K [ } Z T ^ [ { } } } } ~ ^ ] x c ] [ -.$ $ O @ 1.X.g.K X @ + o > r r 6 r 6 6 6 6 r 6 * ) <.<.S.",
"zXsXsX8XM k.d.r.t.d.d.z.d.d.v.d.&.d.y.) [ d.d.k.d.d.d.d.u.d.v.C b z.b.0.5 , , 9 k.d.b.I : $ 9 @ 9 e 2 2 q e 0 $ , , 5 * ..d.x.K.",
"lXsXsX5XV d.v.r.h.k.d.z.d.d.d.t.*.v.b.( } d.v.k.f.d.d.v.u.x.b.A U d.s.7.0 , $ 2 j.d.h.P : $ , $ , , , , , 5 $ 2 > , q & ..h.h.H.",
"vXjXkX8XB z.b.g.j.k.v.C.k.b.b.h.=.v.k._ | k.k.m.k.k.k.k.v.v.z.Z C l.z.K.e , $ , z.z.M.P X 4 > ; > > > 4 > > 4 > > > > * =.j.z.H.",
"zXpXsX4XV d.d.r.t.d.d.N.d.d.v.h.&.d.v.( [ d.d.k.d.d.v.v.u.d.d.A C v.d.5.5 5 $ 5 kXkXkX&X.XpXsX:XuXsXsXxXsXsXsXyXrXpXiX).e , , 9 ",
"cXsXsX4Xc d.d.<.h.d.d.N.v.d.d.v.' v.v.( [ d.d.k.v.d.d.k.u.d.k.C C k.d.0.e $ 2 > kXkXkX&X.XpXaX:XaXsXsXxXsXaXkXyXwXsXkX).r , 5 9 ",
"lXsXsX4XM d.d.r.y.d.d.N.d.v.d.v.&.d.d.( } d.v.k.d.v.d.v.p.d.v.A U v.d.0.5 5 2 , zXsXkX&X.XaXpX:XyXsXsXxXsXsXkXyXwXpXsX).e 5 $ q ",
"lXsXkX5XV v.y.r.r.y.y.j.d.v.t.t.' d.v.( } d.y.y.d.y.d.y.p.d.v.A U k.v.V.5 $ 2 + kXkXsX>X.XsXsX:XiXpXpXlXiXkXsXrXwXgXkX).6 $ , $ ",
"cXsXsX6XB k.d.t.d.p.f.m.i.u.u.a.' p.d.! ^ u.f.v.d.s.u.u.s.s.f.C m k.k.7., 0 $ 5 kXkXsXXX! u.u. .a.u.d.M.f.u.d.u.r.k.k.G 4 $ , $ ",
"xXkXkX8XB v.v.r.y.d.c.z.d.d.d.v.*.v.v.( ^ d.v.k.d.d.d.d.i.d.c.A U l.k.K.5 2 $ 5 kXkXkXXXQ u.u. .t.u.u.5.f.d.d.t.e.d.y.h 5 5 $ e ",
"zXpXpX8XB d.k.g.h.k.b.N.d.v.v.h.&.d.v.( [ y.b.k.d.v.d.y.d.h.b.Z C k.v.0.5 , 2 , zXsXkXXXR d.k.&.h.v.v.K.x.b.b.h.g.d.y.G 5 $ $ e ",
"].'.`.T.u A A M B A C F A A C Z f A A s z A C Z A A A A C C v u i Z A J o o o @ _.`.`.,.z A V s Z A C k C A Z A x A A y o o o o ",
"_.^.^.Y.u U C v C U b A U U b b a m b z c U U v U C U U m U b i i A U F o o o # '._.~.,.z U C a C C C J m b C C v C b u o O o o ",
"xXkXsX=Xv i.d.r.t.d.d.z.u.d.d.a.*.d.s.) ^ d.d.d.p.u.d.d.u.f.v.U U d.i.5.5 $ 5 , kXkXsXXXQ i.d.` e.p.d.8.s.c.v.a.r.c.d.H 5 0 , q ",
"jXsXsX=XV s.k.g.k.z.b.N.k.k.h.z.=.k.k.%.| k.n.l.k.k.b.v.v.h.k.F C v.f.5.e 5 $ 4 sXpXpX$XE d.k.-.l.k.k.K.v.k.k.g.g.k.d.D 4 , , , ",
"nXzXxX3Xh 5.K.F.P.6.L.J.K.K.K.K.A.K.K.+.$.9.L.L.K.K.K.K.7.K.K.k O.6.5.H.e $ $ 9 cXcXcX-X@.7.9.A.K.K.9.D.U.L.P.3.3.7.8.k e , $ $ ",
"cXsXkX6XM d.d.g.t.d.v.C.v.d.v.v.=.k.d.( [ d.d.k.v.v.d.b.u.d.k.A C x.d.0., 5 $ 5 kXkXkXXXR d.k.*.k.d.v.K.f.d.v.y.g.d.v.G , , , 9 ",
"zXsXsX4XV d.a.o.t.d.d.z.v.d.d.v.=.v.v.( [ d.d.k.d.v.d.v.i.d.d.A U b.d.5.5 $ 2 , kXkXkXXXQ d.v.*.t.d.v.0.p.k.v.y.q.d.v.J 5 , , q ",
"zXsXsX4XM d.d.g.y.d.d.N.d.d.d.h.' d.d.( [ d.d.k.d.d.d.k.u.d.k.A C v.d.0.5 2 , > kXkXkXXXW d.k.&.t.d.v.K.f.d.k.e.g.x.v.H 5 $ , , ",
"jXaXaX=XV v.k.g.r.p.d.n.d.d.d.d.' d.d.) } d.d.v.p.d.d.d.i.d.c.C b v.b.U.4 5 5 < kXkXkX$X! p.y.` y.d.d.8.i.d.d.y.e.v.b.H : 5 $ $ ",
"5 e $ @ o 2 9 : =.d.x.m.v.d.d.h.*.d.v.( } e.v.b.v.d.v.d.a.d.c.O.o 9 $ > gXjXkXzXz.k.l.[ W d.y.' t.d.d.9.v.v.v.t.g.v.k.h > $ 2 $ ",
"0 q e @ o e $ > ` d.x.z.v.d.d.v.*.v.v.) ^ d.d.b.d.v.d.d.a.d.b.H @ q 9 e uXkXsXkXk.v.k.[ R d.d.' t.d.d.9.f.h.x.t.r.b.k.G 2 5 5 q ",
", , 9 # o 0 $ : ` v.v.B.v.k.d.e.&.v.b._ } v.v.l.v.v.v.k.d.t.i.v o 9 , , sXsXsXaXl.k.z.} R v.k.*.h.k.v.9.x.b.k.h.g.b.d.h 5 $ $ $ ",
"t 7 7 7 ; 7 t t J ( L +.L _ P T U ^ ^ A Y ^ ^ ^ ^ ^ ^ ^ ~ q.| f o + $ O #X&X&X&X] ^ [ Y U ~ [ S ^ [ ^ -.E ^ [ ^ W [ ^ s > $ # $ ",
"@XoX.X[.,..XoX{.t ; O O + X + - v E W c b R W W R R R R E R R s   @ # + .X.X.X XW W W m b E Q Z Y R R I E R W Y Y R R p X o + @ ",
"xXsXsX7XE.pXpXrXj 5 e 9 4 2 5 6 =.v.c.( } k.v.k.d.d.d.h.c.c.w.F # , $ e iXpXpXsXy.d.v.^ E u.d.` t.d.d.8.s.f.x.d.r.c.v.H 6 5 5 $ ",
"jXsXaX<XE.sXkXfXj e $ 5 0 0 e 6 ` y.b./ [ k.v.z.v.v.c.b.h.j.d.Z o , 1 5 yXpXpXsXk.d.b.[ W d.k.&.j.h.k.9.v.z.z.h.g.b.p.D > , $ e ",
"3X2X:XOXS.,X%X#X7 ; ; ; ; ; ; 3 l >.$.l +.A.$.$.$.$.$.$.$.A.:.d X = X ; >X>X,X>X-.' =.L B *.&.+.=.=.=.,.;.=.=._ @.' ' d $ + $ @ ",
"fXaXpX&XZ v.k.j.#XwXwXqX0XwX0X<X, r r $ , e r r r r r 6 r r r + E.0XwXqXm.v.v.m.t.t.h.[ R e.j.=.h.t.d.6.q.t.d.y.o.t.h.G > , $ $ ",
"cXsXsX4XM d.v.<.7XsXsXzXsXsXsXwX$ 0 $ O $ 0 , , , , , , $ , , X !.sXpXcXv.v.d.v.v.d.k.^ R d.k.=.r.x.d.K.d.v.v.t.g.d.v.G 5 , , 0 ",
"zXsXsX4XV d.v.g.7XkXsXkXsXgXsXwX$ 9 $ O O , , , , , , , $ , , X !.pXpXzXm.p.d.d.v.d.k.^ R d.h.=.d.d.v.K.d.v.k.t.r.x.v.G 5 $ $ e ",
"vXzXzX3Xh 7.K.F.qXcXlXvXcXcXvXqX8 5 > $ # , , 0 0 , 0 ; q , , o _.jXzXvXL.L.K.8.K.9.K.-.@.8.K.:.K.K.K.D.V.6.K.6.3.7.5.k 2 5 $ $ ",
"bXkXkX%XA v.d.y.e.v.e.b.d.d.f.y.2XpXsX@X<XsXsXjXsXkXsXfXe , > X ~.kXsXbXv.f.f.Z.d.f.c.q.E f.p.X.a.f.p.0.Z.f.v.a.e.c.v.H > , , 9 ",
"bXsXsX4XV f.d.g.t.f.c.N.d.x.d.z.1XsXsX@X&XsXsXkXsXpXsXkX> , $ X ^.pXpXcXk.v.v.d.v.v.k.E R d.k.&.t.h.y.9.v.k.k.h.j.b.d.G 5 , , $ ",
"zXpXsX8XM v.b.g.h.k.v.N.v.k.y.k.1XaXkX@X<XsXkXkXsXsXsXuX, , > X !.pXpXcXv.v.v.d.k.b.h.[ R v.k.*.h.v.k.9.v.b.v.t.e.b.u.F 5 , , q ",
"fXaXyX4XM r.t.} r.e.r.j.e.t.y.n.oX5X7X'.}.5X7X9X7X5X7X%X$ , > X ~.uXtXlXy.t.t.e.e.e.t.~ Q e.y._ g.t.t.4.u.e.t.y.I '  .d O , $ , ",
"fXwXyX#Xx r.<...o.r.h.1.g.r.r.g.@.g.g.P ) g.r.4.r.g.o.<.> q $ X E.wXyXfXr.r.r.r.r.r.g.! Y r.r.I o.r.r.3.t.g.g.I $ $ $ o @ $ $ $ ",
"lXkXsX7XV d.b.q.k.v.d.N.d.d.d.d.&.d.d.) ^ k.u.z.d.u.d.B.> 8 2 X `.sXsXxXv.d.d.d.k.v.k.^ R d.d.' t.d.d.8.x.x.v.` > > $ o # 5 5 $ ",
"zXpXaX6XM k.v.g.t.y.d.N.v.h.x.x.=.y.y.( | y.v.z.v.v.v.c.$ > , X !.aXsXcXv.v.x.b.h.k.y.} W x.d. .h.v.d.8.b.x.i.` $ $ $ o + , , , ",
"Q.R.R.3.y D J f G D D k D D H n d D D d f g D O.G G D n & & * % l ).)./.G D H F h G G s p H D d G G D k H H D d o o o   & & & = ",
"1.r.r.] = 5 > , > 5 > $ , 4 5 , $ 5 > # , 5 , > 4 5 , w ..^ | x O r 5 w > , 5 : , 5 5 > > 5 4 $ , > 5 5 : , , > $ $ $ & Y } } >.",
"5.d.y.[ = 9 e , e , , 5 , , 0 , $ 5 2 + + 5 0 2 , 5 , 4 d.u.v.F o , e $ e , , , , , 2 # O , 5 # , , 5 , , , , $ > , , & } d.d.P.",
"M.d.k.[ = 0 , $ 5 $ 5 $ 5 , , , # 2 5 o @ , $ , $ , , e u.d.v.F + $ , e , $ , , , 2 , # O $ 2 $ e $ $ 5 , , , $ $ 0 , & } d.v.P.",
"J.P.H.:.X 0 9 $ e 9 $ q $ 9 0 , $ $ q + # 0 5 9 0 , 9 e P.P.P.l @ $ $ e 9 e $ , , 9 2 $ @ 9 2 # 9 2 9 9 $ $ 9 $ $ , 5 = >.P.P.I."
};
